<?xml version="1.0" encoding="UTF-8"?>
<svg id="Layer_1" xmlns="http://www.w3.org/2000/svg" version="1.1" viewBox="0 0 601.7 331.43">
  <!-- Generator: Adobe Illustrator 29.0.0, SVG Export Plug-In . SVG Version: 2.1.0 Build 186)  -->
  <defs>
    <style>
      .st0 {
        fill: #fff;
      }
    </style>
  </defs>
  <g>
    <path class="st0" d="M362.69,144.73v41.15c0,10.39-8.45,18.84-18.84,18.84s-18.84-8.45-18.84-18.84v-44.28l-15,3.13v41.15c0,18.66,15.18,33.84,33.84,33.84s33.84-15.18,33.84-33.84v-44.28l-15,3.13Z"/>
    <path class="st0" d="M286.71,204.37c-13.28,1.59-25.37-7.92-26.96-21.2-1.59-13.28,7.92-25.37,21.2-26.96,5.81-.69,11.4.74,15.97,3.68l6.09-13.82c-7.01-3.94-15.27-5.78-23.85-4.76-21.49,2.57-36.89,22.15-34.32,43.64,2.57,21.49,22.15,36.89,43.64,34.32,8.69-1.04,16.38-4.86,22.29-10.46,0-.01-5.39-7.12-9.11-12.13-3.78,4.12-8.98,6.98-14.96,7.69"/>
    <path class="st0" d="M226.17,205.14c-13.37.27-24.46-10.39-24.73-23.76-.27-13.37,10.39-24.47,23.76-24.73,5.85-.12,11.27,1.86,15.53,5.24l7.43-13.15c-6.58-4.61-14.62-7.26-23.26-7.09-21.64.43-38.9,18.39-38.46,40.03.43,21.64,18.39,38.9,40.03,38.46,8.75-.18,16.78-3.22,23.22-8.2,0-.01-4.66-7.62-7.87-12.97-4.17,3.73-9.63,6.05-15.65,6.17"/>
    <path class="st0" d="M146.01,186.98c-5.46,0-10.32-2.58-13.46-6.58l13.81-31.75,13.37,31.39c-3.12,4.2-8.1,6.93-13.72,6.93M146.51,110.71l-42.4,97.32,2.54,12.7,11.1-6.67,8.41-18.96c5.47,4.31,12.36,6.89,19.84,6.89s14.47-2.62,19.95-6.98l4.17,9.45,4.24,9.6,11.1,6.67,2.55-12.7-41.51-97.32Z"/>
  </g>
  <rect class="st0" x="375.4" y="212.86" width="6.54" height="6.68"/>
  <g>
    <path class="st0" d="M392.15,218.42c-1.92-1.07-3.4-2.52-4.47-4.35-1.07-1.84-1.6-3.88-1.6-6.14s.53-4.31,1.6-6.14c1.07-1.84,2.56-3.29,4.47-4.35,1.91-1.07,4.1-1.6,6.54-1.6,1.25,0,2.33.12,3.22.38.89.25,1.81.61,2.75,1.08v5.37c-1.63-1.19-3.55-1.79-5.74-1.79-2.38,0-4.24.66-5.58,1.98-1.33,1.32-2,3.01-2,5.08s.67,3.77,2.02,5.08c1.35,1.32,3.2,1.98,5.55,1.98,2.23,0,4.22-.6,5.98-1.79v5.37c-.94.47-1.9.83-2.87,1.08-.97.25-2.09.38-3.34.38-2.45,0-4.63-.53-6.54-1.6"/>
    <path class="st0" d="M413.92,211.47c.61,1.08,1.45,1.94,2.52,2.57,1.07.63,2.26.94,3.58.94s2.51-.31,3.58-.94c1.07-.63,1.91-1.48,2.52-2.57.61-1.08.92-2.28.92-3.6s-.31-2.51-.92-3.58c-.61-1.07-1.45-1.91-2.52-2.52-1.07-.61-2.26-.92-3.58-.92s-2.51.31-3.58.92c-1.07.61-1.91,1.45-2.52,2.52-.61,1.07-.92,2.26-.92,3.58s.31,2.52.92,3.6M413.8,218.39c-1.88-1.08-3.36-2.55-4.45-4.4-1.08-1.85-1.62-3.89-1.62-6.12s.54-4.26,1.62-6.09c1.08-1.84,2.57-3.29,4.45-4.35,1.88-1.07,3.95-1.6,6.21-1.6s4.33.53,6.21,1.6c1.88,1.07,3.36,2.52,4.45,4.35,1.08,1.84,1.62,3.87,1.62,6.09s-.54,4.27-1.62,6.12c-1.08,1.85-2.57,3.32-4.45,4.4-1.88,1.08-3.95,1.62-6.21,1.62s-4.33-.54-6.21-1.62"/>
  </g>
  <rect class="st0" x="436.54" y="212.86" width="6.54" height="6.68"/>
  <path class="st0" d="M450.78,217.55c-1.62-1.62-2.42-3.82-2.42-6.61v-14.64h5.23v13.23c0,1.76.5,3.14,1.51,4.16,1,1.02,2.45,1.53,4.33,1.53s3.55-.5,5.08-1.51v-17.42h5.22v23.25h-5.22v-5.41l-3.01,4.99c-.97.57-2.34.85-4.1.85-2.79,0-5-.81-6.61-2.42"/>
  <polygon class="st0" points="475.94 185.94 475.94 219.55 481.16 219.55 481.16 207.68 491.24 219.55 497.59 219.55 487.14 207.35 496.93 196.29 490.91 196.29 481.16 207.26 481.16 185.94 475.94 185.94"/>
</svg>